<?xml version="1.0" encoding="UTF-8"?><svg id="Calque_2" xmlns="http://www.w3.org/2000/svg" viewBox="0 0 404 404"><defs><style>.cls-1{fill:#eee;}.cls-2{fill:#fff;}.cls-3{fill:#666;}.cls-4{fill:#ddd;}.cls-5{fill:#101010;}.cls-6{fill:#828282;}</style></defs><g id="Calque_1-2"><rect class="cls-1" width="404" height="404" rx="25" ry="25"/><path class="cls-4" d="m116,299.5H7.5C3.36,299.5,0,302.86,0,307H0c0,4.14,3.36,7.5,7.5,7.5h224.5v-15h-116Z"/><path class="cls-6" d="m292,172c-12.25-12.25-30-15.5-60-7.5h-60c-30-8-47.75-4.75-60,7.5-9.01,9.01-4.77,34.52-1.89,47.38.92,4.11,5.19,6.51,9.19,5.18.07-.02.15-.05.23-.07,3.85-1.28,5.82-5.51,4.39-9.32-2.81-7.46-5.89-19.95-1.41-31.93,6.3-16.88,36.16-7.78,46.2-4.17,1.98.71,3.3,2.59,3.3,4.7v55.72s0,67.19,0,67.19c0,4.11,3.16,7.69,7.27,7.81s7.73-3.28,7.73-7.5v-62.5c0-2.76,2.24-5,5-5h20c2.76,0,5,2.24,5,5v62.19c0,4.11,3.16,7.69,7.27,7.81s7.73-3.28,7.73-7.5v-123.22c0-2.11,1.32-3.99,3.3-4.7,10.04-3.61,39.9-12.71,46.2,4.17,4.47,11.99,1.39,24.48-1.42,31.94-1.43,3.8.55,8.02,4.4,9.3l.22.07c4,1.33,8.28-1.07,9.2-5.19,2.88-12.87,7.12-38.37-1.89-47.38Z"/><polygon class="cls-2" points="202 134.5 172 134.5 172 164.5 202 164.5 232 164.5 232 134.5 202 134.5"/><path class="cls-5" d="m237.82,118.53c-3.05.51-5.82-1.84-5.82-4.93v-24.1h0c-19.47,6.49-40.53,6.49-60,0h0s0,15,0,15v9.1c0,3.09-2.77,5.44-5.82,4.93l-15.56-2.59c-4.51-.75-8.61,2.73-8.61,7.3h0c0,3.62,2.61,6.7,6.18,7.3h0c15.85,2.64,31.89,3.97,47.97,3.97h5.85s5.85,0,5.85,0c16.07,0,32.11-1.33,47.97-3.97h0c3.57-.59,6.18-3.68,6.18-7.3h0c0-4.57-4.1-8.05-8.61-7.3l-15.56,2.59Z"/><path class="cls-5" d="m247,224.5h-15v37.5c0,4.14,3.36,7.5,7.5,7.5h0c4.14,0,7.5-3.36,7.5-7.5v-17.5c0-2.76,2.24-5,5-5h2.5c4.14,0,7.5-3.36,7.5-7.5h0c0-4.14-3.36-7.5-7.5-7.5h-7.5Z"/><path class="cls-5" d="m142,232h0c0,4.14,3.36,7.5,7.5,7.5h2.5c2.76,0,5,2.24,5,5v17.5c0,4.14,3.36,7.5,7.5,7.5h0c4.14,0,7.5-3.36,7.5-7.5v-37.5h-22.5c-4.14,0-7.5,3.36-7.5,7.5Z"/><path class="cls-6" d="m204.5,134.5h-5v12.5c0,1.38,1.12,2.5,2.5,2.5h0c1.38,0,2.5-1.12,2.5-2.5v-12.5Z"/><path class="cls-3" d="m172,164.5l26.46,26.46c1.95,1.95,5.12,1.95,7.07,0l26.46-26.46h-60Z"/><polygon class="cls-3" points="202 224.5 172 224.5 172 239.5 202 239.5 232 239.5 232 224.5 202 224.5"/></g></svg>