<?xml version="1.0" encoding="utf-8"?>
<!-- Generator: $$$/GeneralStr/196=Adobe Illustrator 27.6.0, SVG Export Plug-In . SVG Version: 6.00 Build 0)  -->
<svg version="1.1" id="Calque_2_00000078762459414065484430000010355732138270340528_"
	 xmlns="http://www.w3.org/2000/svg" xmlns:xlink="http://www.w3.org/1999/xlink" x="0px" y="0px" viewBox="0 0 404 404"
	 style="enable-background:new 0 0 404 404;" xml:space="preserve">
<style type="text/css">
	.st0{fill:#828282;}
	.st1{fill:#FFFFFF;}
	.st2{fill:#666666;}
	.st3{fill:#DDDDDD;}
	.st4{fill:#101010;}
</style>
<g id="Calque_1-2">
	<path class="st0" d="M232,183.3V164h-60v19.3l0,0V239v3v64.2c0,4.1,3.2,7.7,7.3,7.8c4.2,0.1,7.7-3.3,7.7-7.5V244c0-2.8,2.2-5,5-5
		h20c2.8,0,5,2.2,5,5v62.2c0,4.1,3.2,7.7,7.3,7.8c4.2,0.1,7.7-3.3,7.7-7.5V183.3z"/>
	<polygon class="st1" points="202,134 172,134 172,164 202,164 232,164 232,134 	"/>
	<path class="st0" d="M204.5,134h-5v12.5c0,1.4,1.1,2.5,2.5,2.5l0,0c1.4,0,2.5-1.1,2.5-2.5V134z"/>
	<path class="st2" d="M172,164l26.5,26.5c1.9,1.9,5.1,1.9,7.1,0L232,164H172L172,164z"/>
	<polygon class="st2" points="202,224 172,224 172,239 202,239 232,239 232,224 	"/>
	<path class="st3" d="M224.3,314c-4.1-0.1-7.3-3.7-7.3-7.8V299h-30v7.5c0,4.2-3.5,7.6-7.7,7.5c-4.1-0.1-7.3-3.7-7.3-7.8V299H7.5
		c-4.1,0-7.5,3.4-7.5,7.5s3.4,7.5,7.5,7.5H224.3z"/>
	<path class="st4" d="M237.8,119c-3.1,0.5-5.8-1.8-5.8-4.9V90l0,0c-19.5,6.5-40.5,6.5-60,0l0,0v15v9.1c0,3.1-2.8,5.4-5.8,4.9
		l-15.6-2.6c-4.5-0.8-8.6,2.7-8.6,7.3l0,0c0,3.6,2.6,6.7,6.2,7.3l0,0c15.9,2.6,31.9,4,48,4h5.9h5.9c16.1,0,32.1-1.3,48-4l0,0
		c3.6-0.6,6.2-3.7,6.2-7.3l0,0c0-4.6-4.1-8.1-8.6-7.3L237.8,119L237.8,119z"/>
	<path class="st4" d="M247,224h-15v37.5c0,4.1,3.4,7.5,7.5,7.5l0,0c4.1,0,7.5-3.4,7.5-7.5V244c0-2.8,2.2-5,5-5h2.5
		c4.1,0,7.5-3.4,7.5-7.5l0,0c0-4.1-3.4-7.5-7.5-7.5H247z"/>
	<path class="st4" d="M142,231.5L142,231.5c0,4.1,3.4,7.5,7.5,7.5h2.5c2.8,0,5,2.2,5,5v17.5c0,4.1,3.4,7.5,7.5,7.5l0,0
		c4.1,0,7.5-3.4,7.5-7.5V224h-22.5C145.4,224,142,227.4,142,231.5z"/>
	<path class="st0" d="M172,164c0,0-70.7-17.6-36.2,53.6c1.2,3.3,2.7,6.4,6.2,6.4l0,0c3.3,0,6-2.6,6.2-5.9
		c0.9-17.8-25.8-56,23.8-34.8V164z"/>
</g>
<path class="st0" d="M232,183.3c49.6-21.2,22.9,17,23.8,34.8c0.2,3.3,2.9,5.9,6.2,5.9l0,0c3.5,0,5-3.1,6.2-6.4
	C302.7,146.4,232,164,232,164V183.3z"/>
</svg>
